<?xml version="1.0" encoding="iso-8859-1"?>
<!DOCTYPE svg PUBLIC "-//W3C//DTD SVG 1.1//EN" "http://www.w3.org/Graphics/SVG/1.1/DTD/svg11.dtd">
<svg version="1.1" xmlns="http://www.w3.org/2000/svg" xmlns:xlink="http://www.w3.org/1999/xlink" x="0px" y="0px" width="32px"
	 height="32px" viewBox="0 0 480 480" style="enable-background:new 0 0 480 480;" xml:space="preserve">
	<path style="fill-rule:evenodd;clip-rule:evenodd;" d="M240,159.909c-44.235,0-80.091,35.859-80.091,80.091
		s35.855,80.091,80.091,80.091c44.231,0,80.091-35.859,80.091-80.091S284.231,159.909,240,159.909z M400,226.667h-25.694
		c-6.267-63.891-57.086-114.701-120.973-120.967V80c0-7.363-5.97-13.333-13.333-13.333S226.667,72.637,226.667,80v25.701
		c-63.889,6.266-114.705,57.075-120.971,120.966H80c-7.363,0-13.333,5.97-13.333,13.333s5.97,13.333,13.333,13.333h25.696
		c6.266,63.891,57.082,114.7,120.971,120.966V400c0,7.363,5.97,13.333,13.333,13.333s13.333-5.97,13.333-13.333v-25.701
		c63.888-6.266,114.707-57.075,120.974-120.966H400c7.363,0,13.333-5.97,13.333-13.333S407.363,226.667,400,226.667z M240,347.669
		c-59.463,0-107.666-48.209-107.666-107.669S180.537,132.331,240,132.331c59.466,0,107.669,48.209,107.669,107.669
		S299.466,347.669,240,347.669z"/>
</svg>
